<svg xmlns="http://www.w3.org/2000/svg" viewBox="0 0 200.92 200.92"><defs><style>.cls-1{fill:#fff;}.cls-2{fill:#21409a;}.cls-3{fill:#5fccf5;}</style></defs><title>icon</title><g id="Capa_2" data-name="Capa 2"><path class="cls-1" d="M137.67,68.37V64.29a37.21,37.21,0,0,0-74.43,0v4.08c-3.94,0-7.13,4.53-7.13,10.11S59.31,88.6,63.25,88.6l.35,0a37.2,37.2,0,0,0,73.73,0l.35,0c3.95,0,7.14-4.53,7.14-10.11S141.62,68.37,137.67,68.37Z"/><path class="cls-2" d="M100.46,123A39.51,39.51,0,0,1,61.71,90.62c-4.47-.94-7.78-5.94-7.78-12.14,0-5.9,3-10.71,7.13-12V64.29a39.4,39.4,0,0,1,78.8,0v2.21c4.14,1.27,7.14,6.07,7.14,12,0,6.2-3.31,11.19-7.78,12.14A39.51,39.51,0,0,1,100.46,123ZM63.6,86.38a2.19,2.19,0,0,1,2.17,1.9,35,35,0,0,0,69.39,0,2.19,2.19,0,0,1,2.36-1.89l.19,0c2.65,0,4.92-3.63,4.92-7.93s-2.27-7.93-5-7.93a2.19,2.19,0,0,1-2.19-2.19V64.29a35,35,0,0,0-70.05,0v4.08a2.19,2.19,0,0,1-2.19,2.19c-2.68,0-4.95,3.63-4.95,7.93s2.27,7.92,4.95,7.92l.17,0Z"/><path class="cls-1" d="M181.38,163.82c-5.26-19.94-21-22.11-21-22.11l-43.24-10.32V117a37.18,37.18,0,0,1-33.34,0v14.41L40.56,141.71s-15.75,2.17-21,22.11L13.4,198.74H187.52Z"/><path class="cls-2" d="M187.52,200.92H13.4a2.19,2.19,0,0,1-2.15-2.57l6.13-34.92c0-.06,0-.12,0-.18,5.4-20.41,21.06-23.43,22.72-23.7l41.47-9.9V117a2.19,2.19,0,0,1,3.17-2,35,35,0,0,0,31.38,0,2.19,2.19,0,0,1,3.17,2v12.68l41.47,9.9c1.66.27,17.32,3.29,22.71,23.7q0,.09,0,.18l6.14,34.92a2.19,2.19,0,0,1-2.15,2.57ZM16,196.55H184.92l-5.67-32.26c-4.82-18.11-18.6-20.33-19.18-20.41l-.2,0-43.24-10.32a2.19,2.19,0,0,1-1.68-2.13v-11a39.46,39.46,0,0,1-29,0v11a2.19,2.19,0,0,1-1.68,2.13L41.06,143.84l-.21,0c-.58.08-14.35,2.31-19.19,20.41Z"/><polygon class="cls-1" points="83.07 130.77 66.76 134.66 85.61 157.62 99.39 140.79 83.07 130.77"/><path class="cls-2" d="M85.61,159.81a2.19,2.19,0,0,1-1.69-.8l-18.85-23a2.19,2.19,0,0,1,1.18-3.52l16.31-3.9a2.19,2.19,0,0,1,1.65.26l16.32,10a2.19,2.19,0,0,1,.55,3.25L87.3,159a2.19,2.19,0,0,1-1.69.8ZM70.67,136l14.94,18.19,10.5-12.82L82.7,133.11Z"/><polygon class="cls-1" points="117.95 130.92 134.17 134.8 115.42 157.62 99.39 140.79 117.95 130.92"/><path class="cls-2" d="M115.42,159.81a2.19,2.19,0,0,1-1.58-.68l-16-16.83a2.19,2.19,0,0,1,.56-3.44L116.92,129a2.19,2.19,0,0,1,1.54-.2l16.22,3.88a2.19,2.19,0,0,1,1.18,3.52L117.11,159a2.19,2.19,0,0,1-1.61.8ZM103,141.37l12.33,13,15-18.21-12-2.87Z"/><polygon class="cls-3" points="100.11 140.79 91.67 151.09 100.11 159.98 109.25 150.39 100.11 140.79"/><path class="cls-2" d="M100.1,163.16l-11.35-12L100,137.49l12.28,12.89ZM94.59,151l5.52,5.82,6.11-6.42-6-6.29Z"/><polygon class="cls-3" points="104.47 155.75 100.11 159.98 96.38 156.04 86.19 198.57 100.46 198.57 114.73 198.57 104.47 155.75"/><path class="cls-2" d="M117.51,200.76H83.41l11.78-49.15,5,5.26,5.53-5.37ZM89,196.38h23L103.24,160l-3.2,3.1-2.48-2.62Z"/><polygon class="cls-3" points="105.36 22.9 103.65 2.19 100.46 2.19 97.27 2.19 95.56 22.9 105.36 22.9"/><path class="cls-2" d="M107.74,25.08H93.19L95.25,0h10.41Zm-9.8-4.38H103L101.64,4.38H99.28Z"/><path class="cls-1" d="M143,56.83c0-13.72-5.76-27.66-17-36.81a40.78,40.78,0,0,0-9.1-5.6l-.94-6A38.19,38.19,0,0,0,103.89,5l1.48,17.89h-9.8L97,4.94a31.16,31.16,0,0,0-12.1,3.45l-1.08,6C72.62,19.58,64.47,29.57,60.63,40.59a49.3,49.3,0,0,0-2.72,16.24H143"/><path class="cls-2" d="M145.2,59H55.73V56.83a51.34,51.34,0,0,1,2.84-17A47.24,47.24,0,0,1,81.91,12.93L83,7l.86-.51a33.23,33.23,0,0,1,13-3.74l2.59-.23L97.94,20.71H103l-1.5-18.16,2.63.28A40.53,40.53,0,0,1,116.9,6.41L118,6.9l.94,6a42.86,42.86,0,0,1,8.5,5.39c11.14,9.07,17.79,23.46,17.79,38.5Zm-85-4.38h80.62c-.6-12.93-6.54-25.11-16.13-32.92a38.6,38.6,0,0,0-8.62-5.3l-1.09-.49-.94-6a36.45,36.45,0,0,0-7.71-2.34l1.45,17.52H93.19L94.64,7.46a29.81,29.81,0,0,0-7.73,2.37l-1.09,6.1-1,.48A42.71,42.71,0,0,0,62.7,41.31,46.71,46.71,0,0,0,60.15,54.64Z"/><rect class="cls-2" x="115.42" y="8.27" width="4.38" height="21.26" transform="translate(-1.51 18.25) rotate(-8.82)"/><rect class="cls-2" x="72.39" y="16.71" width="21.35" height="4.38" transform="translate(49.86 97.35) rotate(-79.88)"/><path class="cls-2" d="M94.5,50.57H65.82L65.7,48.5C65.34,42.16,69.78,34.28,70,34l3.8,2.17L71.87,35l1.9,1.08c0,.06-3,5.37-3.61,10.07H94.5Z"/><path class="cls-1" d="M143.49,56.83h-86s-3.88.15-3.84,6.11h93.62C147.31,57,143.49,56.83,143.49,56.83Z"/><path class="cls-2" d="M149.44,65.12h-98V62.94c0-6.39,3.87-8.23,5.95-8.3h86.16c2.06.08,5.93,1.92,5.89,8.31ZM56.09,60.75h88.73c-.33-1.12-.92-1.64-1.46-1.73H57.61C57.33,59.06,56.51,59.32,56.09,60.75Z"/></g></svg>