<?xml version="1.0" encoding="utf-8"?>
<!-- Generator: Adobe Illustrator 21.0.0, SVG Export Plug-In . SVG Version: 6.00 Build 0)  -->
<svg version="1.1" id="Layer_1" xmlns="http://www.w3.org/2000/svg" xmlns:xlink="http://www.w3.org/1999/xlink" x="0px" y="0px"
	 viewBox="0 0 200.9 200.9" style="enable-background:new 0 0 200.9 200.9;" xml:space="preserve">
<style type="text/css">
	.st0{fill:#FFFFFF;}
	.st1{fill:#5FCCF5;}
	.st2{fill:#21409A;}
</style>
<title>icon</title>
<g>
	<path class="st0" d="M151.7,24.1l0.2,2.1c0,0,0,0,0,0c-0.6,0.1-13,1.5-15.2,16.2l-4.2-0.6c2.7-18.1,18.9-19.8,19-19.8L151.7,24.1z"
		/>
	<g id="Capa_2">
		<rect x="25.3" y="94" class="st1" width="29.7" height="77.3"/>
		<path class="st2" d="M57.2,173.4H23.2V91.9h33.9V173.4z M27.5,169.2h25.5V96.1H27.5V169.2z"/>
		<path class="st0" d="M134.3,80.6c-5.6-5.4-13.7-7.5-21.3-5.6c0,0-22,7.1-39.1,25.2H55V166h17.7l7.8,9c3.4,3.9,8.3,6.2,13.5,6.3
			h48.8v-34.8L134.3,80.6z"/>
		<path class="st2" d="M144.9,146.5v36.9h-51l0,0c-5.8-0.1-11.3-2.7-15.1-7.2l-7.1-8.2H52.9V98H73c7.6-7.9,16-13.7,23.1-17.7
			c2.3-1.3,4.4-2.4,6.4-3.3c0.5-0.3,1-0.5,1.5-0.7c0.4-0.2,0.8-0.4,1.2-0.5c0.4-0.2,0.7-0.3,1.1-0.5c1-0.5,2-0.8,2.8-1.2
			c0.2-0.1,0.4-0.2,0.6-0.2c0.6-0.2,1-0.4,1.5-0.5c0.7-0.3,1.1-0.4,1.3-0.4h0.1c2.5-0.7,5-0.9,7.5-0.8c1.4,0.1,2.9,0.3,4.2,0.6
			c2.5,0.6,4.9,1.5,7.1,2.9c1.5,0.9,2.9,2,4.2,3.2c0.1,0.1,0.1,0.1,0.2,0.1l0.1,0.1l-0.3,0.3l-1,0.9l-0.2,0.2l0,0v0l-0.8,0.7
			l-0.8,0.7h0c-0.5-0.4-0.9-0.8-1.4-1.2c-0.2-0.2-0.4-0.3-0.6-0.4c-2-1.5-4.2-2.6-6.6-3.2c-1.4-0.4-2.8-0.6-4.2-0.7
			c-2.1-0.1-4.3,0.1-6.4,0.6c-0.5,0.2-3.5,1.2-8,3.3c-7.7,3.6-19.6,10.3-29.7,20.9c-0.1,0.1-0.3,0.3-0.4,0.4l-0.2,0.2l-0.5,0.5H57.2
			v61.5h16.5l8.5,9.8c3,3.4,7.3,5.5,11.8,5.6h46.7v-32.7H144.9z"/>
		<path class="st0" d="M40.2,164.6c-2.9,0-5.3-2.4-5.3-5.3c0-2.9,2.4-5.3,5.3-5.3s5.3,2.4,5.3,5.3S43.1,164.6,40.2,164.6L40.2,164.6
			z"/>
		<path class="st2" d="M40.2,166.7c-4.1,0-7.4-3.3-7.4-7.4c0-4.1,3.3-7.4,7.4-7.4s7.4,3.3,7.4,7.4c0,0,0,0,0,0
			C47.6,163.4,44.3,166.7,40.2,166.7z M40.2,156.1c-1.8,0-3.2,1.4-3.2,3.2c0,1.8,1.4,3.2,3.2,3.2c1.8,0,3.2-1.4,3.2-3.2l0,0
			C43.4,157.6,42,156.1,40.2,156.1z"/>
		<rect x="130.8" y="109.7" class="st2" width="4.2" height="76.6"/>
		<rect x="123.5" y="109.8" class="st2" width="4.2" height="76.6"/>
		<path class="st2" d="M164,8.4l-4.7,5.4h-5.5L144.6,0h-28.2c-5.3,0.5-10.3,2.1-14.9,4.7c-7.2,4-16.5,12.2-20.5,29l-0.3,1.5l3.9,2.5
			l1.2-1.3c2.7-2.9,10.9-10.1,16.5-9c2.4,0.4,4.2,2.4,5.5,6l4.7,16.3l0.4,1.3h29.9l0.3-1.5l0.1-0.3c2.1-13.4,11.5-16.1,12.9-16.4
			h4.4l2.2,5.3h15.2V8.4H164z M173.5,33.9h-8.1l-2.2-5.3h-7.9c-0.5,0.1-12.9,2.5-16.2,18.2H116l-4.3-14.6V32c-1.8-5.1-4.8-8-8.7-8.8
			c-6-1.2-12.6,3.2-16.6,6.6c3.3-9.7,8.9-16.9,16.9-21.3c4-2.3,8.5-3.7,13.2-4.2h25.8l9.2,13.8h9.6l4.8-5.4h7.5V33.9z"/>
		<path class="st0" d="M166,12.6l-4.8,5.4h-9.6l-9.2-13.8h-25.8c-4.6,0.5-9.1,1.9-13.2,4.2c-8,4.5-13.7,11.6-16.9,21.3
			c4.1-3.4,10.7-7.8,16.6-6.6c3.9,0.8,6.9,3.8,8.7,8.8v0.1l4.3,14.6h23.2c3.3-15.6,15.7-18.1,16.2-18.2h7.9l2.2,5.3h8.1V12.6H166z
			 M151.8,26.2c-0.6,0.1-13,1.5-15.2,16.2l-4.2-0.6c2.7-18.1,18.9-19.8,19-19.8l0.2,2.1L151.8,26.2
			C151.9,26.2,151.9,26.2,151.8,26.2z"/>
		<path class="st2" d="M112.4,46.7V69H143V46.7H112.4z M138.8,64.8h-22.1l0-13.8h22.1V64.8z"/>
		<polygon class="st0" points="138.8,51 138.8,64.8 116.6,64.8 116.7,51 		"/>
		<path class="st2" d="M119.9,64.8v27.9h15.6V64.8H119.9z M131.3,88.4h-7.1V69h7.1V88.4z"/>
		<path class="st0" d="M131.3,69v6.6c-2.2-1.3-4.6-2.3-7.1-2.9V69H131.3z"/>
		<path class="st1" d="M108.7,198.8c0.9-7.3,5.8-8.6,5.8-8.6V97.8c0.3-7.1,4.7-7.3,4.7-7.3h17c0,0,4.4,0.2,4.7,7.3v92.4
			c0,0,5,1.3,5.8,8.6L108.7,198.8z"/>
		<path class="st2" d="M149.2,200.9h-42.9l0.3-2.4c0.7-6,3.9-8.6,5.8-9.7V97.7c0.3-7.1,4.5-9.2,6.7-9.3h17.2
			c2.2,0.1,6.4,2.2,6.7,9.3v91.1c2,1.1,5.1,3.8,5.8,9.7L149.2,200.9z M111.3,196.7h32.8c-1.2-3.6-3.7-4.4-3.8-4.4l-1.6-0.4v-94
			c-0.2-4.5-2.3-5.1-2.7-5.2h-16.8c-0.4,0.1-2.5,0.7-2.7,5.2v94l-1.6,0.4C115,192.3,112.5,193.1,111.3,196.7L111.3,196.7z"/>
		<path class="st2" d="M151.9,26.2C151.9,26.2,151.9,26.2,151.9,26.2c-0.6,0.1-13,1.5-15.2,16.2l-4.2-0.6
			c2.7-18.1,18.9-19.8,19-19.8l0.2,2.1L151.9,26.2z"/>
		<path class="st0" d="M137.8,120.1c-5.5,0-10-4.5-10-10l0,0c0-5.5,4.5-10,10-10h18.7c5.5,0,10,4.5,10,10l0,0c0,5.5-4.5,10-10,10
			H137.8z"/>
		<path class="st2" d="M156.5,122.2h-18.7c-6.7,0-12.1-5.4-12.1-12.1S131.1,98,137.8,98c0,0,0,0,0,0h18.7c6.7,0,12.1,5.4,12.1,12.1
			C168.6,116.8,163.2,122.2,156.5,122.2C156.5,122.2,156.5,122.2,156.5,122.2z M137.8,102.3c-4.3,0-7.9,3.5-7.9,7.9
			c0,4.3,3.5,7.9,7.9,7.9h18.7c4.3,0,7.9-3.5,7.9-7.9c0-4.3-3.5-7.9-7.9-7.9H137.8z"/>
		<path class="st0" d="M139.2,141.4c-5.5,0-10-4.5-10-10l0,0c0-5.5,4.5-10,10-10h21.6c5.5,0,10,4.5,10,10l0,0c0,5.5-4.5,10-10,10
			H139.2z"/>
		<path class="st2" d="M160.9,143.5h-21.6c-6.7,0-12.1-5.4-12.1-12.1c0-6.7,5.4-12.1,12.1-12.1c0,0,0,0,0,0h21.6
			c6.7,0,12.1,5.4,12.1,12.1C172.9,138.1,167.5,143.5,160.9,143.5z M139.2,123.5c-4.3,0-7.9,3.5-7.9,7.8c0,4.3,3.5,7.9,7.8,7.9
			c0,0,0,0,0,0h21.6c4.3,0,7.8-3.5,7.8-7.9c0-4.3-3.5-7.8-7.8-7.8H139.2z"/>
		<path class="st0" d="M142.8,161.3c-5.5,0-10-4.5-10-10l0,0c0-5.5,4.5-10,10-10h13.7c5.5,0,10,4.5,10,10l0,0c0,5.5-4.5,10-10,10
			H142.8z"/>
		<path class="st2" d="M156.5,163.4h-13.7c-6.7,0-12.1-5.4-12.1-12.1c0-6.7,5.4-12.1,12.1-12.1c0,0,0,0,0,0h13.7
			c6.7,0,12.1,5.4,12.1,12.1C168.6,158,163.2,163.4,156.5,163.4C156.5,163.4,156.5,163.4,156.5,163.4z M142.8,143.5
			c-4.3,0-7.9,3.5-7.9,7.9c0,4.3,3.5,7.9,7.9,7.9h13.7c4.3,0,7.9-3.5,7.9-7.9c0-4.3-3.5-7.9-7.9-7.9H142.8z"/>
		<path class="st0" d="M142.8,181.3c-5.5,0-10-4.5-10-10l0,0c0-5.5,4.5-10,10-10h9.3c5.5,0,10,4.5,10,10l0,0c0,5.5-4.5,10-10,10
			H142.8z"/>
		<path class="st2" d="M152.1,183.4h-9.3c-6.7,0-12.1-5.4-12.1-12.1c0-6.7,5.4-12.1,12.1-12.1h9.3c6.7,0,12.1,5.4,12.1,12.1
			C164.2,177.9,158.8,183.4,152.1,183.4C152.1,183.4,152.1,183.4,152.1,183.4z M142.8,163.4c-4.3,0-7.8,3.5-7.8,7.9
			c0,4.3,3.5,7.8,7.8,7.8h9.3c4.3,0,7.9-3.5,7.9-7.8c0-4.3-3.5-7.9-7.8-7.9c0,0,0,0,0,0H142.8z"/>
		<path class="st0" d="M91,120.5c30,3.8,36.9-21.3,36.9-21.3v29c2.8,13.1,19.3,13.1,19.3,13.1V95.9l-12.9-15.3c0,0-9-8.3-21.3-5.6
			c0,0-20.2,6.2-39.1,25.2L91,120.5z"/>
		<path class="st2" d="M147.2,143.5c-6.3,0-18.9-3.1-21.4-14.8c0-0.1,0-0.3,0-0.4v-19.9c-1.1,1.6-2.2,3-3.5,4.4
			c-5.3,5.6-15.1,11.9-31.5,9.9l0.5-4.2c27.8,3.5,34.3-18.8,34.6-19.7c0.3-1.1,1.5-1.8,2.6-1.5c0.9,0.3,1.5,1.1,1.5,2V128
			c2,8.5,10.9,10.6,15.1,11.1V96.6l-12.4-14.6c-0.9-0.8-8.9-7.2-19.2-5c-14.4,5.3-27.4,13.7-38.1,24.6l-3-3
			c19-19.1,39.1-25.5,40-25.7h0.2c13.2-2.9,22.8,5.7,23.2,6.1l0.2,0.2l12.9,15.3c0.3,0.4,0.5,0.9,0.5,1.4v45.5
			C149.3,142.5,148.3,143.5,147.2,143.5z"/>
	</g>
</g>
</svg>
