<?xml version="1.0" encoding="utf-8"?>
<!-- Generator: Adobe Illustrator 21.0.0, SVG Export Plug-In . SVG Version: 6.00 Build 0)  -->
<svg version="1.1" id="Layer_1" xmlns="http://www.w3.org/2000/svg" xmlns:xlink="http://www.w3.org/1999/xlink" x="0px" y="0px"
	 viewBox="0 0 200.9 200.9" style="enable-background:new 0 0 200.9 200.9;" xml:space="preserve">
<style type="text/css">
	.st0{fill:#FFFFFF;}
	.st1{fill:#5FCCF5;}
	.st2{fill:#21409A;}
</style>
<title>icon</title>
<g>
	<path class="st0" d="M30.4,92c-0.7-11.2,7.3-25.4,7.6-26l3.8,2.2c-0.1,0.1-6.7,11.8-7.1,21.5h47.2v4.5H30.5L30.4,92z"/>
	<g id="Capa_2">
		<polygon class="st1" points="109.5,40.6 106.4,2.2 100.5,2.2 94.5,2.2 91.4,40.6 		"/>
		<path class="st2" d="M108.8,5.5L108.4,0H92.5l-0.4,5.3L89,42.8v0h22.9v0L108.8,5.5z M96.6,4.4h7.8l0.1,0.6l0,0.3l2.7,33.1H93.7
			l2.8-33.5L96.6,4.4z"/>
		<path class="st2" d="M181.5,101.5c-0.6-26.6-12.5-51.9-32.2-68c-5-4.1-10.5-7.5-16.3-10.2l-1.8-11.1l-1.1-0.5
			c-6.8-3.2-13.9-5.3-21.3-6.3c-0.6-0.1-1.2-0.2-1.8-0.2l-0.4,0L104.4,5l0,0.3l2.8,33.1H93.8l2.8-33.5h0l-2.2,0.2l-0.4,0
			c-0.6,0.1-1.2,0.1-1.8,0.2c-13,1.5-21.2,6.3-21.5,6.5l-0.9,0.5l-0.2,1L68,21.9l-0.3,1.5c-19.8,9.5-35.5,27.4-43.2,49.3
			c-3.2,9.3-5,19-5.1,28.9c0,0.7,0,1.3,0,2v2.2h162.2v-2.2C181.5,102.8,181.5,102.2,181.5,101.5z M28.7,74.1
			c6.9-19.7,20.6-36,38.1-45.3c1.3-0.7,2.6-1.3,3.9-1.9l1-0.5l0.6-3.5l1.4-7.8h0c5.7-2.8,11.8-4.6,18-5.3l-2.7,33h23l-2.7-32.8
			c6.2,0.9,12.3,2.7,18,5.3h0l1.7,11.2l1.1,0.5c1.3,0.5,2.5,1.1,3.7,1.8c4.5,2.3,8.8,5.1,12.7,8.3c18.7,15.2,30,39.1,30.7,64.4v0
			H23.8v0C24,92,25.6,82.9,28.7,74.1z"/>
		<path class="st0" d="M146.5,36.9c-3.9-3.2-8.2-6-12.7-8.3l3.7,23.7l-4.3,0.7L129,26.4l-1.7-11.2c-5.7-2.6-11.8-4.3-18-5.3
			l2.7,32.8h-0.1v0H89v0l2.7-33c-6.3,0.8-12.4,2.6-18,5.3l-1.4,7.8l-0.6,3.5l-4.8,26.7l-4.3-0.8l4.2-23.5
			c-17.5,9.3-31.2,25.6-38.1,45.3c-3,8.8-4.7,17.9-4.9,27.2h153.4C176.5,76.1,165.1,52.2,146.5,36.9z M81.9,94.1H30.5L30.4,92
			c-0.7-11.2,7.3-25.4,7.6-26l3.8,2.2c-0.1,0.1-6.7,11.8-7.1,21.5h47.2V94.1z"/>
		<polygon class="st2" points="137.4,52.3 133.1,53 129,26.4 127.3,15.2 127.1,14 131.4,13.3 133.8,28.6 		"/>
		<polygon class="st2" points="73.8,14.1 73.7,15.1 72.3,22.9 71.6,26.4 66.9,53.1 62.6,52.3 66.8,28.8 67.7,23.4 68,21.9 
			69.5,13.3 69.5,13.3 		"/>
		<path class="st2" d="M81.9,89.6v4.5H30.5L30.4,92c-0.7-11.2,7.3-25.4,7.6-26l3.8,2.2c-0.1,0.1-6.7,11.8-7.1,21.5H81.9z"/>
		<path class="st2" d="M181.5,101.5c-0.7-0.2-1.2-0.2-1.2-0.2H20.7c0,0-0.5,0-1.3,0.2c-2.6,0.7-8,3.3-7.9,13.3v2.2h177.9l0-2.2
			C189.5,104.7,184,102.1,181.5,101.5z M16,112.6c0.5-5.8,3.7-6.8,4.6-7c0.1,0,0.2,0,0.2,0h159.4c0,0,0.1,0,0.2,0
			c0.9,0.2,4,1.2,4.5,7H16z"/>
		<path class="st0" d="M185,112.6H16c0.5-5.8,3.7-6.8,4.6-7h159.8C181.3,105.9,184.4,106.9,185,112.6z"/>
		<path class="st1" d="M172.5,114.8h-36.2c-0.6,19.5-16.8,34.8-36.3,34.2c-18.7-0.5-33.7-15.5-34.2-34.2H29.7c0,1.5,0.1,3,0.2,4.5
			L15.7,123l6.4,24.5l13.9-3.6c3,6.6,7,12.8,11.8,18.2l-8.6,11.1l20,15.5l8.5-11c6.5,3.5,13.5,5.9,20.8,7.2v13.8h25.3v-13.8
			c6.9-1.2,13.6-3.5,19.8-6.7l8.3,11.1l20.3-15.2l-8.4-11.3c3.6-3.9,6.7-8.2,9.4-12.8l13.3,4.9l8.8-23.8l-13.6-5
			C172.2,122.5,172.5,118.6,172.5,114.8z"/>
		<path class="st2" d="M186,129.2l-12-4.4c0.4-2.6,0.6-5.2,0.7-7.8c0-0.7,0-1.4,0-2.2v0c0-1.2-1-2.2-2.2-2.2h-36.2
			c-1.2,0-2.2,0.9-2.2,2.1c0,0.8-0.1,1.5-0.1,2.2c-1.5,16.6-15.2,29.6-32.1,30c-17.5,0.4-32.2-12.8-33.7-30
			c-0.1-0.7-0.1-1.5-0.1-2.2c0-1.2-1-2.1-2.2-2.1H29.7c-1.2,0-2.2,1-2.2,2.2c0,0.7,0,1.5,0.1,2.2c0,0.2,0,0.4,0,0.7l-12.4,3.3
			c-1.2,0.3-1.9,1.5-1.6,2.7l6.4,24.5c0.3,1.2,1.5,1.8,2.7,1.5l12.1-3.2c2.7,5.6,6.2,10.9,10.2,15.7l-7.5,9.7
			c-0.7,1-0.6,2.3,0.4,3.1l20.1,15.5c1,0.7,2.3,0.6,3.1-0.4l7.4-9.5c5.7,2.8,11.7,4.9,17.9,6.2v12c0,1.2,1,2.2,2.2,2.2h25.3
			c1.2,0,2.2-1,2.2-2.2v-12c5.9-1.2,11.6-3.1,17-5.7l7.3,9.8c0.7,1,2.1,1.2,3.1,0.4l20.3-15.2c1-0.7,1.2-2.1,0.4-3.1l-7.4-9.8
			c2.8-3.2,5.3-6.6,7.5-10.3l11.7,4.3c1.1,0.4,2.4-0.2,2.8-1.3l8.8-23.8C187.7,130.9,187.1,129.7,186,129.2z M163.8,148
			c-1-0.4-2.1,0.1-2.6,1c-2.5,4.5-5.6,8.6-9.1,12.4c-0.7,0.8-0.8,2-0.1,2.8l7.2,9.5l-16.8,12.6l-7-9.4c-0.6-0.8-1.8-1.1-2.8-0.6
			c-6,3.1-12.5,5.3-19.2,6.5c-1,0.2-1.8,1.1-1.8,2.1v11.6h-21l0-11.6c0-1.1-0.8-2-1.8-2.1c-7-1.3-13.8-3.6-20.1-6.9
			c-0.9-0.5-2.1-0.3-2.8,0.6l-7.2,9.3l-16.5-12.8l7.3-9.4c0.6-0.8,0.6-2-0.1-2.8c-4.7-5.3-8.5-11.2-11.5-17.7
			c-0.4-1-1.5-1.5-2.5-1.2l-11.7,3.1l-5.3-20.3l12-3.1c1-0.3,1.7-1.2,1.6-2.2c0-0.7-0.1-1.4-0.1-2.2c0,0,0,0,0,0h31.9c0,0,0,0,0,0
			c1.6,18.1,16,32.5,34.1,34.1c20.6,1.8,38.7-13.5,40.5-34.1c0,0,0,0,0,0h31.9c0,0,0,0,0,0c-0.1,3-0.4,5.9-0.9,8.8
			c-0.2,1,0.4,2,1.4,2.4l11.6,4.3l-7.2,19.7L163.8,148z"/>
		<path class="st2" d="M101.1,165.9c-23.4-0.2-43.9-15.7-50.2-38.3l4.2-1.2c5.6,20.3,24.9,35,46,35L101.1,165.9z"/>
	</g>
</g>
</svg>
