<svg xmlns="http://www.w3.org/2000/svg" viewBox="0 0 200.92 200.92"><defs><style>.cls-1{fill:#5fccf5;}.cls-2{fill:#21409a;}.cls-3{fill:#fff;}</style></defs><title>icon</title><g id="Capa_2" data-name="Capa 2"><rect class="cls-1" x="6.11" y="36.55" width="188.7" height="126.96" rx="9.88" ry="9.88"/><path class="cls-2" d="M184.94,165.62H16a12,12,0,0,1-12-12V46.43a12,12,0,0,1,12-12h169a12,12,0,0,1,12,12V153.64A12,12,0,0,1,184.94,165.62ZM16,38.65a7.79,7.79,0,0,0-7.78,7.78V153.64A7.79,7.79,0,0,0,16,161.42h169a7.78,7.78,0,0,0,7.77-7.78V46.43a7.78,7.78,0,0,0-7.77-7.78Z"/><rect class="cls-3" x="6.12" y="48.04" width="188.69" height="103.99"/><path class="cls-2" d="M194.81,154.13H6.12A2.1,2.1,0,0,1,4,152V48a2.1,2.1,0,0,1,2.1-2.1H194.81a2.1,2.1,0,0,1,2.1,2.1V152A2.1,2.1,0,0,1,194.81,154.13ZM8.22,149.93H192.71V50.14H8.22Z"/><rect class="cls-1" x="82.64" y="163.52" width="35.66" height="26.74"/><path class="cls-2" d="M120.39,192.35H80.54V161.42h39.86Zm-35.66-4.2h31.46V165.62H84.74Z"/><path class="cls-3" d="M130,190.25H70.9s-7.7,0-8.5,8.56h76.15C137.73,190.25,130,190.25,130,190.25Z"/><path class="cls-2" d="M138.54,200.91H62.39a2.1,2.1,0,0,1-2.09-2.3c.78-8.27,7.27-10.46,10.6-10.46H130c3.32,0,9.82,2.19,10.6,10.46a2.1,2.1,0,0,1-2.09,2.3ZM65,196.71h71a6.46,6.46,0,0,0-5.94-4.36H70.9A6.45,6.45,0,0,0,65,196.71Z"/><polygon class="cls-2" points="62.39 138.3 14.64 138.3 14.64 84.85 18.84 84.85 18.84 134.1 62.39 134.1 62.39 138.3"/><rect class="cls-1" x="33.11" y="2.12" width="134.72" height="100.85" rx="2.96" ry="2.96"/><path class="cls-2" d="M164.86,105.07H36.07A5.07,5.07,0,0,1,31,100V5.08A5.07,5.07,0,0,1,36.07,0H164.86a5.07,5.07,0,0,1,5.07,5.06V100A5.07,5.07,0,0,1,164.86,105.07ZM36.07,4.22a.86.86,0,0,0-.86.86V100a.86.86,0,0,0,.86.86H164.86a.86.86,0,0,0,.86-.86V5.08a.86.86,0,0,0-.86-.86Z"/><rect class="cls-3" x="45.75" y="30.97" width="69.05" height="62.13"/><path class="cls-2" d="M116.9,95.19H43.65V28.87H116.9ZM47.85,91H112.7V33.07H47.85Z"/><path class="cls-3" d="M167.83,18.88V5.08a3,3,0,0,0-3-3H36.07a3,3,0,0,0-3,3v13.8Z"/><path class="cls-2" d="M169.93,21H31V5.08A5.07,5.07,0,0,1,36.07,0H164.86a5.07,5.07,0,0,1,5.07,5.06ZM35.21,16.78H165.73V5.08a.86.86,0,0,0-.86-.86H36.07a.86.86,0,0,0-.86.86Z"/><path class="cls-2" d="M86,88.16H74.59V83.84a22.14,22.14,0,0,1-3.14-1.08l-2.64,3.42-9-6.94,2.7-3.49A22.17,22.17,0,0,1,60.74,73l-4.3,1.12-2.88-11L58,62c0-.69.05-1.39.12-2.07l-4.32-1.59,3.93-10.66,4.43,1.63q.36-.5.75-1l-2.84-3.8,9.09-6.82L72,41.57a22.07,22.07,0,0,1,2.55-.84V35.91H86v4.82a22.15,22.15,0,0,1,2.85,1l2.94-3.82,9,6.95-2.89,3.75a22.16,22.16,0,0,1,1.72,2.54l4.54-1.19,2.88,11-4.42,1.16c0,.07,0,.15,0,.22,0,.62,0,1.25-.08,1.87l4.27,1.57-3.92,10.66-4.16-1.53q-.4.59-.84,1.15l2.64,3.53-9.09,6.81-2.59-3.47a22.13,22.13,0,0,1-2.84,1ZM78.79,84h3V80.4l1.73-.31a18,18,0,0,0,5-1.69l1.58-.81,2.16,2.88L94.6,78.7l-2.17-2.91,1.18-1.28A17.87,17.87,0,0,0,96,71.26l.88-1.54L100.34,71l1-2.78-3.51-1.29.28-1.71a18.37,18.37,0,0,0,.24-2.93c0-.48,0-1-.08-1.64l-.15-1.76,3.72-1L101.11,55l-3.77,1-.75-1.56a18,18,0,0,0-3-4.42l-1.2-1.3,2.45-3.17L92.5,43.77,90,47l-1.55-.79a18,18,0,0,0-5-1.69l-1.73-.31V40.11h-3v4.07l-1.73.31A17.85,17.85,0,0,0,72.3,46l-1.56.77-2.42-3.23-2.37,1.78,2.4,3.2-1.21,1.28a19,19,0,0,0-2.36,3.09l-.9,1.47-3.66-1.35-1,2.78,3.65,1.34-.33,1.75a18,18,0,0,0-.31,3.35c0,.34,0,.71,0,1.19l.1,1.72-3.64,1L59.44,69,63,68.07l.73,1.63a18,18,0,0,0,3,4.62l1.16,1.3L65.7,78.48,68,80.29l2.2-2.85,1.57.83a17.94,17.94,0,0,0,5.26,1.81l1.73.31Zm1.48-6.07A15.85,15.85,0,1,1,96.13,62,15.87,15.87,0,0,1,80.27,77.88Zm0-27.5A11.65,11.65,0,1,0,91.93,62,11.66,11.66,0,0,0,80.27,50.39Z"/><rect class="cls-2" x="126.36" y="33.55" width="34.59" height="4.2"/><rect class="cls-2" x="126.36" y="54.58" width="8.09" height="4.2"/><rect class="cls-2" x="137.65" y="54.58" width="23.31" height="4.2"/><rect class="cls-2" x="126.36" y="43.39" width="13.25" height="4.2"/><rect class="cls-2" x="143.29" y="43.39" width="17.66" height="4.2"/><rect class="cls-2" x="126.36" y="65.27" width="34.59" height="4.2"/><rect class="cls-2" x="126.36" y="86.31" width="8.09" height="4.2"/><rect class="cls-2" x="137.65" y="86.31" width="23.31" height="4.2"/><rect class="cls-2" x="126.36" y="75.12" width="13.25" height="4.2"/><rect class="cls-2" x="143.29" y="75.12" width="17.66" height="4.2"/><rect class="cls-2" x="141.11" y="8.4" width="5.47" height="4.2"/><rect class="cls-2" x="148.24" y="8.4" width="5.47" height="4.2"/><rect class="cls-2" x="155.37" y="8.4" width="5.47" height="4.2"/></g></svg>