<?xml version="1.0" encoding="utf-8"?>
<!-- Generator: Adobe Illustrator 21.0.0, SVG Export Plug-In . SVG Version: 6.00 Build 0)  -->
<svg version="1.1" id="Layer_1" xmlns="http://www.w3.org/2000/svg" xmlns:xlink="http://www.w3.org/1999/xlink" x="0px" y="0px"
	 viewBox="0 0 200 190.3" style="enable-background:new 0 0 200 190.3;" xml:space="preserve">
<style type="text/css">
	.st0{fill-rule:evenodd;clip-rule:evenodd;fill:#0e628f;}
</style>
<path class="st0" d="M97.2,155.7h7.9v13.9h-7.9V155.7L97.2,155.7z M22.6,115.5l5.1-0.3l-7.5-11.6l-7.5-11.6l-6.3,12.3L0,116.6
	l5.5-0.3c22.9,97.7,174.3,105.3,188.8-17.9C163.3,209.9,42.6,195.9,22.6,115.5L22.6,115.5z M177.4,74.8
	c-20-80.5-140.8-94.5-171.7,17C20.2-31.3,171.6-23.8,194.5,73.9l5.5-0.3L193.7,86l-6.3,12.3l-7.5-11.6l-7.5-11.6L177.4,74.8
	L177.4,74.8z M138.2,159.4l-1.5,0.9l-4.2-7.2l1.5-0.9L138.2,159.4L138.2,159.4z M64.2,159.4l4.2-7.2l1.5,0.9l-4.2,7.2L64.2,159.4
	L64.2,159.4z M164.4,132.6l-0.9,1.5l-7.2-4.2l0.8-1.5L164.4,132.6L164.4,132.6z M156.4,64.2l0.9,1.5l7.2-4.2l-0.9-1.5L156.4,64.2
	L156.4,64.2z M173.7,93.1v7.9h-13.9v-7.9H173.7L173.7,93.1z M118,162.4l1.4-0.4l1.3,4.9l-1.4,0.4L118,162.4L118,162.4z M148.4,145.2
	l1-1l3.6,3.6l-1,1L148.4,145.2L148.4,145.2z M166.2,115.2l0.4-1.4l4.9,1.3l-0.4,1.4L166.2,115.2L166.2,115.2z M166.5,80.2l4.9-1.3
	l-0.4-1.4l-4.9,1.3L166.5,80.2L166.5,80.2z M149.4,49.8l3.6-3.6l-1-1l-3.6,3.6L149.4,49.8L149.4,49.8z M83.1,167.3l-1.4-0.4L83,162
	l1.4,0.4L83.1,167.3L83.1,167.3z M97.2,24.5v13.9h7.9V24.5H97.2L97.2,24.5z M69.8,41l-4.2-7.2l-1.5,0.8l4.2,7.2L69.8,41L69.8,41z
	 M132.5,41l1.5,0.9l4.2-7.2l-1.5-0.8L132.5,41L132.5,41z M46,64.2L38.8,60l-0.9,1.5l7.2,4.2L46,64.2L46,64.2z M37.9,132.6l7.2-4.2
	l0.9,1.5l-7.2,4.2L37.9,132.6L37.9,132.6z M42.5,93.1v7.9H28.6v-7.9H42.5L42.5,93.1z M81.7,27.1L83,32l1.4-0.4l-1.3-4.9L81.7,27.1
	L81.7,27.1z M49.4,46.2l3.6,3.6l1-1l-3.6-3.6L49.4,46.2L49.4,46.2z M30.9,78.9l4.9,1.3l0.4-1.4l-4.9-1.3L30.9,78.9L30.9,78.9z
	 M31.3,116.5l-0.4-1.4l4.9-1.3l0.4,1.4L31.3,116.5L31.3,116.5z M50.4,148.8l-1-1l3.6-3.6l1,1L50.4,148.8L50.4,148.8z M119.3,32
	l1.3-4.9l-1.4-0.4l-1.3,4.9L119.3,32L119.3,32z M96.9,105.8L72.6,148l-2-1.2L95,104.6c-2.2-1.8-3.6-4.5-3.6-7.5c0-4.3,2.8-8,6.8-9.3
	L101,59h0.4l2.8,28.8c1.5,0.5,2.9,1.4,4,2.5l43.2-21.3l0.2,0.3l-40.6,27.1c0,0.2,0,0.5,0,0.7c0,5.4-4.4,9.7-9.7,9.7
	C99.7,106.8,98.2,106.4,96.9,105.8L96.9,105.8z M101.2,89.8c4,0,7.2,3.2,7.2,7.2c0,4-3.2,7.2-7.2,7.2c-4,0-7.2-3.2-7.2-7.2
	C93.9,93,97.2,89.8,101.2,89.8z"/>
</svg>
