<svg xmlns="http://www.w3.org/2000/svg" viewBox="0 0 200.92 200.92"><defs><style>.cls-1{fill:#5fccf5;}.cls-2{fill:#21409a;}</style></defs><title>icon</title><g id="Capa_2" data-name="Capa 2"><polygon class="cls-1" points="109.55 40.58 106.38 2.19 100.47 2.19 94.54 2.19 91.38 40.58 109.55 40.58"/><path class="cls-2" d="M111.92,42.77H89L92.53,0H108.4ZM93.75,38.39h13.42l-2.8-34H96.56Z"/><path class="cls-2" d="M181.55,105.69H19.38V103.5a93.52,93.52,0,0,1,5.17-30.84c7.64-21.91,23.34-39.81,43.18-49.29l2-11.06.86-.51c.37-.22,9.28-5.42,23.35-6.68l2.59-.23-2.75,33.5h13.42L104.42,5l2.62.27a73.35,73.35,0,0,1,23.12,6.47l1.07.49L133,23.37a77.55,77.55,0,0,1,16.3,10.19C169.47,50,181.55,76.17,181.55,103.5ZM23.78,101.31H177.15c-.62-25.23-12-49.16-30.66-64.37a73.27,73.27,0,0,0-16.41-10.08L129,26.38l-1.73-11.19a69.36,69.36,0,0,0-18-5.28l2.71,32.85H89l2.71-33a57.13,57.13,0,0,0-18.06,5.34l-2,11.28-1,.48C51.34,35.71,36.06,52.93,28.68,74.1A88.94,88.94,0,0,0,23.78,101.31Z"/><rect class="cls-2" x="130.07" y="13.45" width="4.38" height="39.43" transform="translate(-3.52 20.64) rotate(-8.81)"/><rect class="cls-2" x="48.41" y="30.98" width="39.58" height="4.38" transform="translate(23.57 94.49) rotate(-79.88)"/><path class="cls-2" d="M81.94,94.11H30.54L30.42,92c-.65-11.23,7.31-25.36,7.65-26l3.8,2.16c-.07.13-6.67,11.85-7.1,21.48H81.94Z"/><path class="cls-2" d="M189.43,117H11.49v-2.17c-.08-13,9.13-13.52,9.22-13.53H180.34c.09,0,9.19.5,9.11,13.53ZM16,112.64H185c-.66-6.46-4.45-6.92-4.78-7H20.85C20.33,105.73,16.61,106.29,16,112.64Z"/><path class="cls-1" d="M172.52,114.83H136.34a35.25,35.25,0,0,1-70.47,0H29.7c0,1.51.08,3,.16,4.5L15.7,123l6.41,24.51L36,143.91a71.8,71.8,0,0,0,11.81,18.22l-8.61,11.15,20.05,15.48,8.49-11a70.84,70.84,0,0,0,20.75,7.16v13.8h25.33v-13.8a70.68,70.68,0,0,0,19.82-6.68l8.32,11.11,20.27-15.18-8.44-11.27a71.65,71.65,0,0,0,9.37-12.83L176.48,155l8.75-23.77-13.65-5A72.43,72.43,0,0,0,172.52,114.83Z"/><path class="cls-2" d="M113.77,200.92H88.45a2.19,2.19,0,0,1-2.19-2.19v-12a72.92,72.92,0,0,1-17.94-6.19l-7.37,9.55a2.19,2.19,0,0,1-3.07.4L37.82,175a2.19,2.19,0,0,1-.39-3.07l7.52-9.74a73.83,73.83,0,0,1-10.2-15.72l-12.09,3.16A2.19,2.19,0,0,1,20,148.09l-6.41-24.51a2.19,2.19,0,0,1,1.56-2.67l12.44-3.25c0-.9-.07-1.86-.08-2.82a2.19,2.19,0,0,1,2.19-2.2H65.87a2.19,2.19,0,0,1,2.19,2.12,33.06,33.06,0,0,0,66.1,0,2.19,2.19,0,0,1,2.19-2.12h36.17a2.19,2.19,0,0,1,2.19,2.2,74.87,74.87,0,0,1-.7,10l12,4.41a2.19,2.19,0,0,1,1.3,2.81l-8.75,23.77a2.19,2.19,0,0,1-2.81,1.3l-11.66-4.29a74.13,74.13,0,0,1-7.5,10.27l7.37,9.84a2.19,2.19,0,0,1-.44,3.06l-20.27,15.18a2.19,2.19,0,0,1-3.06-.44L132.93,181a72.85,72.85,0,0,1-17,5.72v12A2.19,2.19,0,0,1,113.77,200.92Zm-23.14-4.38h21V184.94a2.19,2.19,0,0,1,1.8-2.15,68.49,68.49,0,0,0,19.2-6.47,2.19,2.19,0,0,1,2.75.63l7,9.36,16.77-12.56L152,164.23a2.19,2.19,0,0,1,.14-2.79A69.63,69.63,0,0,0,161.21,149a2.19,2.19,0,0,1,2.65-1l11.32,4.17,7.23-19.66-11.6-4.27a2.19,2.19,0,0,1-1.4-2.4,70.83,70.83,0,0,0,.87-8.86H138.41a37.44,37.44,0,0,1-74.6,0H31.94c0,.77.07,1.51.11,2.19a2.19,2.19,0,0,1-1.63,2.24l-12,3.15,5.3,20.27,11.74-3.07A2.19,2.19,0,0,1,38,143a69.47,69.47,0,0,0,11.45,17.67,2.19,2.19,0,0,1,.1,2.79l-7.27,9.42L58.82,185.7,66,176.44a2.19,2.19,0,0,1,2.76-.6,68.58,68.58,0,0,0,20.11,6.94,2.19,2.19,0,0,1,1.8,2.15Z"/><path class="cls-2" d="M101.11,165.86a52.56,52.56,0,0,1-50.23-38.25l4.22-1.16c5.58,20.3,24.93,35,46,35Z"/></g></svg>