<svg xmlns="http://www.w3.org/2000/svg" viewBox="0 0 275.52 200.92"><defs><style>.cls-1{fill:#5fccf5;}.cls-2{fill:#21409a;}.cls-3{fill:#fff;}</style></defs><title>icon</title><g id="Capa_2" data-name="Capa 2"><path class="cls-1" d="M6.39,198.28H198.28V6.39Zm156-35.67H91l71.38-71.38Z"/><path class="cls-2" d="M200.92,200.92H0L200.92,0ZM12.78,195.63H195.63V12.78ZM165,165.26H84.62L165,84.84ZM97.4,160h62.34V97.62Z"/><rect class="cls-2" x="27.25" y="188.31" width="5.29" height="9.97"/><rect class="cls-2" x="39.34" y="188.31" width="5.29" height="9.97"/><rect class="cls-2" x="51.43" y="188.31" width="5.29" height="9.97"/><rect class="cls-2" x="63.51" y="188.31" width="5.29" height="9.97"/><rect class="cls-2" x="75.61" y="188.31" width="5.29" height="9.97"/><rect class="cls-2" x="87.69" y="188.31" width="5.29" height="9.97"/><rect class="cls-2" x="99.78" y="188.31" width="5.29" height="9.97"/><rect class="cls-2" x="111.87" y="188.31" width="5.29" height="9.97"/><rect class="cls-2" x="123.95" y="188.31" width="5.29" height="9.97"/><rect class="cls-2" x="136.05" y="188.31" width="5.29" height="9.97"/><rect class="cls-2" x="148.13" y="188.31" width="5.29" height="9.97"/><rect class="cls-2" x="160.22" y="188.31" width="5.29" height="9.97"/><rect class="cls-2" x="172.31" y="188.31" width="5.29" height="9.97"/><rect class="cls-2" x="184.4" y="188.31" width="5.29" height="9.97"/><rect class="cls-3" x="182.92" y="39.07" width="89.96" height="127.86" rx="6.64" ry="6.64"/><path class="cls-2" d="M266.24,169.58H189.56a9.3,9.3,0,0,1-9.29-9.29V45.72a9.3,9.3,0,0,1,9.29-9.29h76.68a9.3,9.3,0,0,1,9.29,9.29V160.29A9.3,9.3,0,0,1,266.24,169.58ZM189.56,41.72a4,4,0,0,0-4,4V160.29a4,4,0,0,0,4,4h76.68a4,4,0,0,0,4-4V45.72a4,4,0,0,0-4-4Z"/><rect class="cls-1" x="193.1" y="54.46" width="69.59" height="15.46"/><path class="cls-2" d="M265.34,72.57H190.45V51.81h74.88Zm-69.59-5.29H260V57.1h-64.3Z"/><rect class="cls-1" x="199.51" y="83.25" width="13.17" height="13.17"/><path class="cls-2" d="M215.33,99.07H196.87V80.61h18.46Zm-13.17-5.29H210V85.9h-7.88Z"/><rect class="cls-1" x="221.31" y="83.25" width="13.17" height="13.17"/><path class="cls-2" d="M237.13,99.07H218.67V80.61h18.46ZM224,93.78h7.88V85.9H224Z"/><rect class="cls-1" x="243.11" y="83.25" width="13.17" height="13.17"/><path class="cls-2" d="M258.93,99.07H240.47V80.61h18.46Zm-13.17-5.29h7.88V85.9h-7.88Z"/><rect class="cls-1" x="199.51" y="105.39" width="13.17" height="13.16"/><path class="cls-2" d="M215.33,121.2H196.87V102.75h18.46Zm-13.17-5.29H210V108h-7.88Z"/><rect class="cls-1" x="221.31" y="105.39" width="13.17" height="13.16"/><path class="cls-2" d="M237.13,121.2H218.67V102.75h18.46ZM224,115.91h7.88V108H224Z"/><rect class="cls-1" x="243.11" y="105.39" width="13.17" height="13.16"/><path class="cls-2" d="M258.93,121.2H240.47V102.75h18.46Zm-13.17-5.29h7.88V108h-7.88Z"/><rect class="cls-1" x="199.51" y="127.53" width="13.17" height="13.17"/><path class="cls-2" d="M215.33,143.35H196.87V124.89h18.46Zm-13.17-5.29H210v-7.88h-7.88Z"/><rect class="cls-1" x="221.31" y="127.53" width="13.17" height="13.17"/><path class="cls-2" d="M237.13,143.35H218.67V124.89h18.46ZM224,138.06h7.88v-7.88H224Z"/><rect class="cls-1" x="243.11" y="127.53" width="13.17" height="13.17"/><path class="cls-2" d="M258.93,143.35H240.47V124.89h18.46Zm-13.17-5.29h7.88v-7.88h-7.88Z"/><path class="cls-2" d="M257.83,161.67h-22v-5.29h22a4,4,0,0,0,4-4V138.26h5.29v14.12A9.3,9.3,0,0,1,257.83,161.67Z"/><polygon class="cls-1" points="29.36 144.43 17.01 132.09 110.23 38.87 122.56 51.22 29.36 144.43"/><path class="cls-2" d="M29.36,147.07a2.64,2.64,0,0,1-1.87-.77L15.14,134a2.65,2.65,0,0,1,0-3.74L108.36,37a2.65,2.65,0,0,1,1.87-.78h0a2.65,2.65,0,0,1,1.87.78l12.34,12.35a2.65,2.65,0,0,1,0,3.74L31.23,146.3A2.64,2.64,0,0,1,29.36,147.07Zm-8.6-15,8.6,8.59,89.47-89.47-8.59-8.6Z"/><path class="cls-2" d="M122.56,53.87h0a2.64,2.64,0,0,1-1.87-.78L108.36,40.74a2.65,2.65,0,0,1,0-3.74l6.54-6.54a2.65,2.65,0,0,1,1.87-.78h0a2.65,2.65,0,0,1,1.87.77L131,42.8a2.65,2.65,0,0,1,0,3.74l-6.55,6.54A2.65,2.65,0,0,1,122.56,53.87Zm-8.59-15,8.6,8.6,2.8-2.8-8.6-8.6Z"/><path class="cls-2" d="M129.11,47.32a2.65,2.65,0,0,1-1.87-.77L114.9,34.2a2.65,2.65,0,0,1,0-3.74l3.56-3.55A11.37,11.37,0,0,1,134.53,43L131,46.54a2.65,2.65,0,0,1-1.87.78Zm-8.6-15,8.6,8.6,1.68-1.68a6.08,6.08,0,1,0-8.59-8.6Z"/><path class="cls-2" d="M8.41,155.67A2.65,2.65,0,0,1,6,152l8.6-20.94a2.65,2.65,0,0,1,4.32-.87l12.35,12.34a2.65,2.65,0,0,1-.87,4.32l-20.95,8.6A2.64,2.64,0,0,1,8.41,155.67ZM18,136.77l-4.68,11.4,11.41-4.68Z"/><path class="cls-2" d="M8.41,155.67A2.65,2.65,0,0,1,6,152l4.25-10.33a2.65,2.65,0,0,1,4.32-.86l6.09,6.09a2.65,2.65,0,0,1-.87,4.32L9.42,155.48A2.64,2.64,0,0,1,8.41,155.67Zm5.18-8.3-.33.8.8-.33Z"/><path class="cls-2" d="M23.19,140.9a2.65,2.65,0,0,1-1.87-4.52l93.21-93.21a2.65,2.65,0,1,1,3.74,3.74L25.06,140.13A2.64,2.64,0,0,1,23.19,140.9Z"/></g></svg>