<svg xmlns="http://www.w3.org/2000/svg" viewBox="0 0 200.92 200.92"><defs><style>.cls-1{fill:#5fccf5;}.cls-2{fill:#21409a;}.cls-3{fill:#fff;}</style></defs><title>icon</title><g id="Capa_2" data-name="Capa 2"><rect class="cls-1" x="25.34" y="93.99" width="29.71" height="77.3"/><path class="cls-2" d="M57.17,173.4H23.22V91.87H57.17Zm-29.71-4.24H52.93V96.1H27.46Z"/><path class="cls-3" d="M134.26,80.56A22.48,22.48,0,0,0,113,75s-22,7.12-39.07,25.2H55.05v65.76H72.72l7.76,9A18.1,18.1,0,0,0,94,181.25h48.77V146.48"/><path class="cls-2" d="M93.92,183.37a20.15,20.15,0,0,1-15.09-7.16L71.75,168H52.93V98H73c17.14-17.77,38.41-24.8,39.32-25.1l.15,0a24.46,24.46,0,0,1,23.37,6.24L132.7,82l1.56-1.43L132.71,82a20.22,20.22,0,0,0-19.16-5c-1.34.45-22.1,7.66-38.11,24.62l-.63.66H57.17v61.52H73.68l8.47,9.78a16.14,16.14,0,0,0,11.79,5.56h46.73V146.48h4.24v36.88h-51Z"/><path class="cls-3" d="M40.2,164.62a5.3,5.3,0,1,1,5.3-5.3A5.3,5.3,0,0,1,40.2,164.62Z"/><path class="cls-2" d="M40.2,166.74a7.42,7.42,0,1,1,7.41-7.42A7.43,7.43,0,0,1,40.2,166.74Zm0-10.6a3.18,3.18,0,1,0,3.18,3.18A3.18,3.18,0,0,0,40.2,156.14Z"/><rect class="cls-2" x="130.76" y="109.73" width="4.24" height="76.58"/><rect class="cls-2" x="123.55" y="109.79" width="4.24" height="76.58"/><path class="cls-2" d="M142.73,51H112.81l-5.07-17.63c-1.32-3.58-3.13-5.56-5.52-6-5.68-1.15-13.87,6.09-16.55,9l-1.21,1.31-3.89-2.53.35-1.45c4-16.77,13.38-25,20.55-29A36.49,36.49,0,0,1,116.37,0h28.21l9.23,13.81h5.46L164,8.38H177.7V38.06H162.53l-2.15-5.28H156c-1.39.32-10.82,3-12.94,16.42ZM116,46.75h23.17c3.33-15.65,15.66-18.07,16.2-18.17l.19,0h7.68l2.15,5.28h8.09V12.62H166L161.17,18h-9.63L142.32,4.24H116.5a33.09,33.09,0,0,0-13.16,4.19c-8,4.47-13.65,11.63-16.93,21.34,4.07-3.44,10.65-7.82,16.64-6.62,3.92.79,6.85,3.76,8.69,8.82l0,.14Z"/><path class="cls-2" d="M143,69H112.43V46.75H143Zm-26.38-4.24h22.14V51H116.66Z"/><path class="cls-2" d="M135.54,92.63H119.93V64.77h15.61Zm-11.37-4.24h7.14V69h-7.14Z"/><path class="cls-1" d="M108.7,198.81c.88-7.28,5.84-8.61,5.84-8.61V97.79c.33-7.06,4.69-7.28,4.69-7.28h17s4.36.22,4.69,7.28v92.4s5,1.33,5.84,8.61Z"/><path class="cls-2" d="M149.16,200.92H106.31l.29-2.37c.72-6,3.87-8.63,5.83-9.72V97.69c.33-7.1,4.53-9.19,6.7-9.3h17.21c2.17.11,6.37,2.2,6.7,9.3v91.14c2,1.09,5.11,3.75,5.83,9.72Zm-37.84-4.24h32.83c-1.21-3.65-3.74-4.44-3.77-4.45l-1.57-.42v-94c-.23-4.54-2.28-5.14-2.7-5.21H119.36c-.42.07-2.47.67-2.7,5.21v94l-1.57.42C115,192.27,112.52,193.07,111.32,196.69Z"/><path class="cls-2" d="M136.65,42.48l-4.19-.63c2.71-18.11,18.87-19.8,19-19.82l.39,4.22-.19-2.11.2,2.11C151.36,26.3,138.87,27.72,136.65,42.48Z"/><path class="cls-3" d="M137.83,120.1a10,10,0,0,1-10-10h0a10,10,0,0,1,10-10H156.5a10,10,0,0,1,10,10h0a10,10,0,0,1-10,10Z"/><path class="cls-2" d="M156.5,122.21H137.83a12.09,12.09,0,1,1,0-24.18H156.5a12.09,12.09,0,1,1,0,24.18Zm-18.67-19.95a7.85,7.85,0,1,0,0,15.71H156.5a7.85,7.85,0,1,0,0-15.71Z"/><path class="cls-3" d="M139.24,141.37a10,10,0,0,1-10-10h0a10,10,0,0,1,10-10h21.61a10,10,0,0,1,10,10h0a10,10,0,0,1-10,10Z"/><path class="cls-2" d="M160.85,143.48H139.24a12.09,12.09,0,1,1,0-24.18h21.61a12.09,12.09,0,0,1,0,24.18Zm-21.61-19.94a7.85,7.85,0,1,0,0,15.7h21.61a7.85,7.85,0,0,0,0-15.7Z"/><path class="cls-3" d="M142.82,161.31a10,10,0,0,1-10-10h0a10,10,0,0,1,10-10H156.5a10,10,0,0,1,10,10h0a10,10,0,0,1-10,10Z"/><path class="cls-2" d="M156.5,163.43H142.82a12.09,12.09,0,1,1,0-24.18H156.5a12.09,12.09,0,1,1,0,24.18Zm-13.68-19.95a7.85,7.85,0,1,0,0,15.71H156.5a7.85,7.85,0,1,0,0-15.71Z"/><path class="cls-3" d="M142.79,181.25a10,10,0,0,1-10-10h0a10,10,0,0,1,10-10h9.33a10,10,0,0,1,10,10h0a10,10,0,0,1-10,10Z"/><path class="cls-2" d="M152.11,183.37h-9.33a12.09,12.09,0,0,1,0-24.18h9.33a12.09,12.09,0,1,1,0,24.18Zm-9.33-19.94a7.85,7.85,0,0,0,0,15.7h9.33a7.85,7.85,0,1,0,0-15.7Z"/><path class="cls-3" d="M91,120.54c30,3.78,36.9-21.27,36.9-21.27v29c2.83,13.13,19.31,13.13,19.31,13.13V95.87l-12.91-15.3s-9-8.27-21.3-5.61c0,0-20.23,6.24-39.07,25.2"/><path class="cls-2" d="M147.17,143.48c-6.29,0-18.86-3.09-21.38-14.8a2.11,2.11,0,0,1,0-.45V108.35a34.52,34.52,0,0,1-3.53,4.42c-5.33,5.64-15.12,11.93-31.51,9.87l.53-4.2c27.77,3.5,34.33-18.78,34.59-19.74a2.12,2.12,0,0,1,4.16.57V128c2,8.52,10.93,10.58,15.08,11.09V96.64L132.75,82.05c-.9-.77-8.86-7.24-19.24-5A104.4,104.4,0,0,0,75.4,101.64l-3-3c19-19.12,39.1-25.47,39.95-25.73l.18,0C125.72,70,135.29,78.64,135.69,79l.19.19,12.91,15.3a2.12,2.12,0,0,1,.5,1.37v45.5A2.12,2.12,0,0,1,147.17,143.48Z"/></g></svg>