<svg xmlns="http://www.w3.org/2000/svg" viewBox="0 0 200.92 200.92"><defs><style>.cls-1{fill:#5fccf5;}.cls-2{fill:#21409a;}.cls-3{fill:#fff;}</style></defs><title>icon</title><g id="Capa_2" data-name="Capa 2"><rect class="cls-1" x="28.84" y="27.63" width="143.23" height="171.11"/><path class="cls-2" d="M174.27,200.92H26.66V25.44H174.27ZM31,196.55H169.89V29.82H31Z"/><rect class="cls-3" x="40.23" y="27.63" width="120.48" height="159.64"/><path class="cls-2" d="M162.89,189.46H38v-164H162.89ZM42.41,185.08h116.1V29.82H42.41Z"/><rect class="cls-2" x="54.43" y="89.46" width="92.07" height="4.37"/><rect class="cls-2" x="54.43" y="120.15" width="21.55" height="4.37"/><rect class="cls-2" x="84.46" y="120.15" width="62.04" height="4.37"/><rect class="cls-2" x="54.43" y="103.83" width="35.26" height="4.37"/><rect class="cls-2" x="99.49" y="103.83" width="47.01" height="4.37"/><rect class="cls-2" x="54.43" y="135.75" width="92.07" height="4.37"/><rect class="cls-2" x="54.43" y="166.45" width="21.55" height="4.37"/><rect class="cls-2" x="84.46" y="166.45" width="62.04" height="4.37"/><rect class="cls-2" x="54.43" y="150.12" width="35.26" height="4.37"/><rect class="cls-2" x="99.49" y="150.12" width="47.01" height="4.37"/><path class="cls-1" d="M117.41,19.82c0-.21,0-.43,0-.65a17,17,0,1,0-34,0c0,.22,0,.44,0,.65H71.74V38.1H129.2V19.82Z"/><path class="cls-2" d="M131.38,40.29H69.55V17.63h11.8a19.17,19.17,0,0,1,38.21,0h11.81ZM73.93,35.91H127V22H115.16l.06-2.25c0-.12,0-.24,0-.37s0-.14,0-.22a14.79,14.79,0,1,0-29.59,0c0,.08,0,.17,0,.25l0,.27L85.84,22H73.93Z"/><path class="cls-2" d="M105.64,87H95.29V83.3a18.8,18.8,0,0,1-2.05-.7L91,85.53l-8.19-6.32,2.32-3a19,19,0,0,1-1.15-1.77l-3.68,1-2.62-10,3.8-1q0-.55.07-1.1l-3.7-1.36,3.58-9.71,3.8,1.4.24-.31L83,50.07l8.29-6.22,2.48,3.3q.76-.29,1.55-.51V42.53h10.35v4.13a18.63,18.63,0,0,1,1.8.61L110,44l8.2,6.34-2.48,3.2a19,19,0,0,1,1.09,1.62l3.89-1,2.62,10-3.79,1q0,.55,0,1.11l3.66,1.35-3.57,9.71L116,76l-.32.44,2.27,3-8.29,6.21-2.23-3q-.88.34-1.79.6Zm-6-4.37h1.6V79.73l1.81-.32A14.59,14.59,0,0,0,107.14,78l1.64-.83,1.75,2.34,1.28-1L110,76.22l1.24-1.34a14.48,14.48,0,0,0,1.92-2.63l.92-1.6,2.84,1,.55-1.51-2.86-1.06.29-1.78a15.06,15.06,0,0,0,.19-2.38c0-.44,0-.86-.06-1.31l-.17-1.84L118,61l-.41-1.56-3.07.8-.78-1.63a14.61,14.61,0,0,0-2.43-3.58L110,53.69l2-2.58-1.27-1-2,2.61-1.62-.83a14.44,14.44,0,0,0-4.05-1.36l-1.8-.32V46.9h-1.6v3.33l-1.81.32A14.36,14.36,0,0,0,94,51.81l-1.63.8-2-2.63-1.28,1,2,2.63L89.8,54.92a14,14,0,0,0-1.9,2.48L87,58.95l-3-1.1-.55,1.5,3,1.1-.36,1.83A14.22,14.22,0,0,0,85.79,65c0,.29,0,.57,0,.86l.1,1.91L83,68.52l.41,1.55,2.94-.77L87.08,71a14.64,14.64,0,0,0,2.42,3.74l1.21,1.36-1.81,2.34,1.27,1L92,77.08l1.63.87a14.43,14.43,0,0,0,4.25,1.46l1.8.32Zm.8-7.88a10,10,0,1,1,10-10A10,10,0,0,1,100.46,74.75Zm0-15.6a5.61,5.61,0,1,0,5.62,5.61A5.62,5.62,0,0,0,100.46,59.15Z"/></g></svg>