<?xml version="1.0" encoding="utf-8"?>
<!-- Generator: Adobe Illustrator 21.0.0, SVG Export Plug-In . SVG Version: 6.00 Build 0)  -->
<svg version="1.1" id="Layer_1" focusable="false" xmlns="http://www.w3.org/2000/svg" xmlns:xlink="http://www.w3.org/1999/xlink"
	 x="0px" y="0px" viewBox="0 0 512 512" style="enable-background:new 0 0 512 512;" xml:space="preserve">
<style type="text/css">
	.st0{fill:#F7FF00;}
</style>
<path class="st0" d="M425.1,65.8c-39.9,0-73.3,25.7-83.7,64.3c-18.2-58.1-65.5-64.3-85-64.3c-19.8,0-66.8,6.3-85.3,64.3
	c-10.4-38.6-43.4-64.3-83.7-64.3C38.6,65.8,0,99.7,0,143c0,29,4.2,33.3,77.2,233.5c22.4,60.6,67.8,69.4,92.7,69.4
	c39.2,0,70-19.5,85.9-54c15.9,34.8,46.7,54.3,85.9,54.3c25,0,70.4-9.1,92.7-69.7C511.1,167.9,512,170.9,512,149.3
	C512.6,101,476,65.8,425.1,65.8L425.1,65.8z M451.4,180.6l-65.6,176.4c-7.9,21.5-21.2,37.2-46.2,37.2c-23.4,0-37.4-12.4-44-33.9
	L256.3,243h-0.9l-39.3,117.4c-7,21.5-20.9,33.6-44,33.6c-25,0-38.3-15.7-46.2-37.2L60.9,181.6c-5.4-14.8-7.9-23.9-7.9-34.5
	c0-16.3,15.8-29.4,38.3-29.4c18.7,0,32,11.8,36.1,29.1l44,139.8h0.9L217,149.8c6-19.7,16.5-32.1,39-32.1s32.9,12.1,39,32.1
	l44.7,136.8h1l44-139.8c4.1-17.3,17.4-29.1,36.1-29.1c22.2,0,38.3,13.3,38.3,35.7C458.7,161.3,454.9,169.4,451.4,180.6L451.4,180.6z
	"/>
</svg>
